#!OML:ASF F:\VICON\USERDATA\INSTALL\rory3\rory3.ASF
:FULLY-SPECIFIED
:DEGREES
377
root -0.0606031 19.0252 9.53773 3.78377 -9.15048 1.20157
lowerback 4.0524 -0.128051 -2.77363
upperback -1.21584 -0.339636 -0.53113
thorax -3.51392 -0.114836 1.03218
lowerneck -7.66253 -7.73716 -10.83
upperneck 4.46875 -9.95813 10.2999
head 3.64342 -4.74793 4.27397
rclavicle 1.43498e-014 -3.97569e-015
rhumerus -32.9327 -6.01432 -78.4326
rradius 18.17
rwrist 12.9455
rhand -23.5459 1.38858
rfingers 7.12502
rthumb 2.91592 -28.5712
lclavicle 1.43498e-014 -3.97569e-015
lhumerus -38.9937 23.5996 67.7704
lradius 11.7627
lwrist -15.9194
lhand -23.2533 28.2465
lfingers 7.12502
lthumb 3.19846 58.2023
rfemur -4.44932 19.593 19.7912
rtibia 13.0732
rfoot -12.6617 -20.3101
rtoes 4.24599
lfemur -3.85692 -6.14881 -20.8744
ltibia 11.7275
lfoot -15.0156 25.7204
ltoes 8.9063
378
root -0.0620851 19.0244 9.54036 3.6268 -9.23221 1.17771
lowerback 4.15801 -0.133261 -2.8175
upperback -1.1023 -0.349552 -0.50852
thorax -3.45536 -0.120337 1.08107
lowerneck -7.6858 -7.77652 -10.8246
upperneck 4.53843 -10.0114 10.2647
head 3.67157 -4.77445 4.25598
rclavicle 2.08848e-014 9.34288e-015
rhumerus -32.8082 -5.03707 -79.0255
rradius 18.445
rwrist 12.0602
rhand -22.9866 1.09123
rfingers 7.12502
rthumb 3.45602 -28.8605
lclavicle 2.08848e-014 9.34288e-015
lhumerus -38.8966 23.7284 67.6484
lradius 11.7924
lwrist -16.2469
lhand -22.9935 27.839
lfingers 7.12502
lthumb 3.44937 57.7908
rfemur -4.21924 19.8297 19.8897
rtibia 13.0162
rfoot -12.6981 -20.4656
rtoes 4.46011
lfemur -3.62655 -6.27056 -20.8803
ltibia 11.6685
lfoot -15.0887 25.9047
ltoes 8.62031
379
root -0.0632652 19.0235 9.54387 3.47868 -9.34552 1.15221
lowerback 4.27201 -0.116001 -2.84206
upperback -1.0101 -0.329725 -0.499555
thorax -3.42493 -0.111101 1.10305
lowerneck -7.66216 -7.81212 -10.8503
upperneck 4.68207 -10.0677 10.2489
head 3.71729 -4.80331 4.24918
rclavicle -1.61016e-014 -4.17448e-015
rhumerus -32.6888 -4.32275 -79.5231
rradius 18.699
rwrist 11.3901
rhand -22.3831 0.352487
rfingers 7.12502
rthumb 4.03882 -29.589
lclavicle -1.61016e-014 -4.17448e-015
lhumerus -38.7349 23.7963 67.579
lradius 11.7371
lwrist -16.2791
lhand -23.0629 27.1862
lfingers 7.12502
lthumb 3.3824 57.1392
rfemur -3.98609 20.0122 19.9862
rtibia 12.931
rfoot -12.7073 -20.5531
rtoes 4.43659
lfemur -3.39339 -6.42843 -20.8883
ltibia 11.6209
lfoot -15.2483 26.1358
ltoes 9.07078
380
root -0.0641634 19.0235 9.55002 3.36908 -9.4308 1.15852
lowerback 4.30467 -0.112271 -2.88106
upperback -0.929016 -0.32668 -0.508331
thorax -3.35952 -0.110511 1.11566
lowerneck -7.64106 -7.86673 -10.8451
upperneck 4.80472 -10.1495 10.2118
head 3.75705 -4.84502 4.22897
rclavicle 2.61775e-014 -4.37326e-015
rhumerus -32.5455 -3.86544 -79.8599
rradius 18.9269
rwrist 11.6204
rhand -21.056 -0.967969
rfingers 7.12502
rthumb 5.32025 -30.8812
lclavicle 2.61775e-014 -4.37326e-015
lhumerus -38.6109 24.1841 67.2407
lradius 11.5804
lwrist -16.8026
lhand -22.9811 26.8819
lfingers 7.12502
lthumb 3.46137 56.8335
rfemur -3.79664 20.0722 20.0338
rtibia 12.8476
rfoot -12.639 -20.562
rtoes 4.28931
lfemur -3.21463 -6.49628 -20.9286
ltibia 11.5917
lfoot -15.3611 26.2879
ltoes 9.29152
381
root -0.0665682 19.0218 9.55735 3.32672 -9.53725 1.09495
lowerback 4.28603 -0.110824 -2.87029
upperback -0.876933 -0.322197 -0.503194
thorax -3.29535 -0.109782 1.11443
lowerneck -7.78081 -7.9451 -10.726
upperneck 5.02746 -10.2585 10.0791
head 3.84496 -4.89652 4.1521
rclavicle 4.09993e-016 1.61016e-014
rhumerus -32.4316 -3.515 -80.1022
rradius 19.0881
rwrist 12.4283
rhand -19.5289 -1.73519
rfingers 7.12502
rthumb 6.79457 -31.6062
lclavicle 4.09993e-016 1.61016e-014
lhumerus -38.6455 25.0373 66.5117
lradius 11.3808
lwrist -18.0249
lhand -22.832 26.9917
lfingers 7.12502
lthumb 3.60536 56.941
rfemur -3.67849 20.055 20.1311
rtibia 12.7576
rfoot -12.6379 -20.4604
rtoes 3.90338
lfemur -3.11716 -6.65694 -20.8819
ltibia 11.5899
lfoot -15.5858 26.4881
ltoes 9.3687
382
root -0.068048 19.0222 9.56325 3.33558 -9.63658 0.99334
lowerback 4.29367 -0.125879 -2.81461
upperback -0.891137 -0.338604 -0.467771
thorax -3.31368 -0.118292 1.12094
lowerneck -7.81255 -7.95668 -10.6874
upperneck 5.23836 -10.2789 9.95762
head 3.90707 -4.90874 4.10294
rclavicle 1.22998e-014 1.33186e-014
rhumerus -32.3844 -3.21456 -80.2771
rradius 19.0248
rwrist 12.9297
rhand -18.8901 -1.50039
rfingers 7.12502
rthumb 7.41127 -31.3506
lclavicle 1.22998e-014 1.33186e-014
lhumerus -38.8261 26.0469 65.6616
lradius 11.1953
lwrist -19.2841
lhand -22.6742 27.2711
lfingers 7.12502
lthumb 3.75773 57.2178
rfemur -3.6144 19.9112 20.2458
rtibia 12.6403
rfoot -12.5663 -20.2569
rtoes 3.24241
lfemur -3.1019 -6.8266 -20.78
ltibia 11.6103
lfoot -15.6978 26.7364
ltoes 9.31078
